<?xml version="1.0" encoding="UTF-8" standalone="no"?>
<svg
   xmlns:dc="http://purl.org/dc/elements/1.1/"
   xmlns:cc="http://creativecommons.org/ns#"
   xmlns:rdf="http://www.w3.org/1999/02/22-rdf-syntax-ns#"
   xmlns:svg="http://www.w3.org/2000/svg"
   xmlns="http://www.w3.org/2000/svg"
   xmlns:sodipodi="http://sodipodi.sourceforge.net/DTD/sodipodi-0.dtd"
   xmlns:inkscape="http://www.inkscape.org/namespaces/inkscape"
   width="418.69971"
   height="258.53256"
   version="1.1"
   id="svg3414"
   sodipodi:docname="lecontelogo2048notext.svg"
   inkscape:version="0.92.1 r15371">
  <metadata
     id="metadata3420">
    <rdf:RDF>
      <cc:Work
         rdf:about="">
        <dc:format>image/svg+xml</dc:format>
        <dc:type
           rdf:resource="http://purl.org/dc/dcmitype/StillImage" />
        <dc:title></dc:title>
      </cc:Work>
    </rdf:RDF>
  </metadata>
  <defs
     id="defs3418" />
  <sodipodi:namedview
     pagecolor="#ffffff"
     bordercolor="#666666"
     borderopacity="1"
     objecttolerance="10"
     gridtolerance="10"
     guidetolerance="10"
     inkscape:pageopacity="0"
     inkscape:pageshadow="2"
     inkscape:window-width="1920"
     inkscape:window-height="1053"
     id="namedview3416"
     showgrid="false"
     inkscape:zoom="2.6074562"
     inkscape:cx="226.89783"
     inkscape:cy="22.927699"
     inkscape:window-x="0"
     inkscape:window-y="27"
     inkscape:window-maximized="1"
     inkscape:current-layer="svg3414"
     fit-margin-top="0"
     fit-margin-left="0"
     fit-margin-right="0"
     fit-margin-bottom="0" />
  <path
     style="fill:#000000"
     d="m 1.9918704,257.70938 c -3.4419,-2.35683 -2.52740002,-5.75789 3.5587,-13.23469 41.1554796,-57.6399 35.9759096,-60.45025 46.2479996,-52.826 3.23791,2.46105 14.0398,-13.11962 41.5908,-56.00813 7.5489,-11.75132 7.627,-11.68884 29.1669,23.33413 11.32116,18.40773 13.34166,21.48445 14.11466,21.49317 0.3333,0.004 3.3555,-7.30567 6.7158,-16.24317 3.3603,-8.9375 10.6723,-28.175 16.2488,-42.75 15.4363,-40.345204 19.7555,-51.687494 23.4198,-61.500004 1.8485,-4.95 6.8053,-18 11.0152,-29 4.2098,-11 8.5512,-22.3643401 9.6476,-25.2540901 2.6596,-7.00998 7.89432,-7.87354 10.90437,-0.93974 1.731,4.37336 13.86433,36.5376901 37.94233,104.6938341 13.7435,38.9028 20.044,56.37731 20.4865,56.81991 0.3093,0.30922 4.4691,-5.87846 16.0135,-23.81991 20.7156,-32.19471 16.9561,-32.44508 37.5401,2.5 6.8034,11.55 13.7737,23.59609 15.4896,26.76909 3.1197,5.76908 3.1197,5.76908 7.794,-0.25 7.1595,-9.21944 9.4161,-8.66797 18.3355,4.48091 2.2385,3.3 6.4007,9.375 9.2492,13.5 2.8486,4.125 9.9215,14.475 15.7174,23 5.796,8.525 13.8763,20.39446 17.9562,26.37659 7.5295,11.04 9.0617,15.57976 6.218,18.42341 -1.355,1.35505 -413.3990596,1.78625 -415.3729596,0.43469 z"
     id="path7910"
     inkscape:connector-curvature="0"
     sodipodi:nodetypes="cccsccscccccscsscccccccc" />
</svg>
