<?xml version="1.0" encoding="UTF-8" standalone="no"?>
<svg
   xmlns:dc="http://purl.org/dc/elements/1.1/"
   xmlns:cc="http://creativecommons.org/ns#"
   xmlns:rdf="http://www.w3.org/1999/02/22-rdf-syntax-ns#"
   xmlns:svg="http://www.w3.org/2000/svg"
   xmlns="http://www.w3.org/2000/svg"
   xmlns:sodipodi="http://sodipodi.sourceforge.net/DTD/sodipodi-0.dtd"
   xmlns:inkscape="http://www.inkscape.org/namespaces/inkscape"
   width="418.69971"
   height="354.37405"
   version="1.1"
   id="svg3414"
   sodipodi:docname="lecontelogo.svg"
   inkscape:version="0.92.1 r15371">
  <metadata
     id="metadata3420">
    <rdf:RDF>
      <cc:Work
         rdf:about="">
        <dc:format>image/svg+xml</dc:format>
        <dc:type
           rdf:resource="http://purl.org/dc/dcmitype/StillImage" />
        <dc:title></dc:title>
      </cc:Work>
    </rdf:RDF>
  </metadata>
  <defs
     id="defs3418" />
  <sodipodi:namedview
     pagecolor="#ffffff"
     bordercolor="#666666"
     borderopacity="1"
     objecttolerance="10"
     gridtolerance="10"
     guidetolerance="10"
     inkscape:pageopacity="0"
     inkscape:pageshadow="2"
     inkscape:window-width="1920"
     inkscape:window-height="1053"
     id="namedview3416"
     showgrid="false"
     inkscape:zoom="1.84375"
     inkscape:cx="265.75849"
     inkscape:cy="143.41597"
     inkscape:window-x="0"
     inkscape:window-y="27"
     inkscape:window-maximized="1"
     inkscape:current-layer="svg3414"
     fit-margin-top="0"
     fit-margin-left="0"
     fit-margin-right="0"
     fit-margin-bottom="0" />
  <path
     style="fill:#000000"
     d="m 1.9918704,257.70938 c -3.4419,-2.35683 -2.52740001,-5.75789 3.5587,-13.23469 41.1554796,-57.6399 35.9759096,-60.45025 46.2479996,-52.826 3.23791,2.46105 14.0398,-13.11962 41.5908,-56.00813 7.5489,-11.75132 7.627,-11.68884 29.1669,23.33413 11.32116,18.40773 13.34166,21.48445 14.11466,21.49317 0.3333,0.004 3.3555,-7.30567 6.7158,-16.24317 3.3603,-8.9375 10.6723,-28.175 16.2488,-42.75 15.4363,-40.345204 19.7555,-51.687494 23.4198,-61.500004 1.8485,-4.95 6.8053,-18 11.0152,-29 4.2098,-11 8.5512,-22.3643401 9.6476,-25.2540901 2.6596,-7.00998 7.89432,-7.87354 10.90437,-0.93974 1.731,4.37336 13.86433,36.5376901 37.94233,104.6938341 13.7435,38.9028 20.044,56.37731 20.4865,56.81991 0.3093,0.30922 4.4691,-5.87846 16.0135,-23.81991 20.7156,-32.19471 16.9561,-32.44508 37.5401,2.5 6.8034,11.55 13.7737,23.59609 15.4896,26.76909 3.1197,5.76908 3.1197,5.76908 7.794,-0.25 7.1595,-9.21944 9.4161,-8.66797 18.3355,4.48091 2.2385,3.3 6.4007,9.375 9.2492,13.5 2.8486,4.125 9.9215,14.475 15.7174,23 5.796,8.525 13.8763,20.39446 17.9562,26.37659 7.5295,11.04 9.0617,15.57976 6.218,18.42341 -1.355,1.35505 -413.3990596,1.78625 -415.3729596,0.43469 z"
     id="path7910"
     inkscape:connector-curvature="0"
     sodipodi:nodetypes="cccsccscccccscsscccccccc" />
  <g
     aria-label="leconte"
     transform="translate(-538.42706,-358.26912)"
     style="font-style:normal;font-variant:normal;font-weight:normal;font-stretch:normal;font-size:112px;line-height:125%;font-family:Ubuntu;-inkscape-font-specification:'Ubuntu, Normal';font-variant-ligatures:normal;font-variant-caps:normal;font-variant-numeric:normal;font-feature-settings:normal;text-align:start;letter-spacing:0px;word-spacing:0px;writing-mode:lr-tb;text-anchor:start;fill:#000000;fill-opacity:1;stroke:none;stroke-width:1px;stroke-linecap:butt;stroke-linejoin:miter;stroke-opacity:1"
     id="flowRoot7912">
    <path
       d="m 582.52966,712.30717 q -9.632,-0.224 -13.664,-4.144 -4.032,-3.92 -4.032,-12.208 v -69.888 l 10.416,-1.792 v 70 q 0,2.576 0.448,4.256 0.448,1.68 1.456,2.688 1.008,1.008 2.688,1.568 1.68,0.448 4.144,0.784 z"
       style="font-style:normal;font-variant:normal;font-weight:normal;font-stretch:normal;font-size:112px;font-family:Ubuntu;-inkscape-font-specification:'Ubuntu, Normal';font-variant-ligatures:normal;font-variant-caps:normal;font-variant-numeric:normal;font-feature-settings:normal;text-align:start;writing-mode:lr-tb;text-anchor:start"
       id="path7920" />
    <path
       d="m 592.43466,682.17917 q 0,-7.728 2.24,-13.44 2.24,-5.824 5.936,-9.632 3.696,-3.808 8.512,-5.712 4.816,-1.904 9.856,-1.904 11.76,0 18.032,7.392 6.272,7.28 6.272,22.288 0,0.672 0,1.792 0,1.008 -0.112,1.904 h -39.872 q 0.672,9.072 5.264,13.776 4.592,4.704 14.336,4.704 5.488,0 9.184,-0.896 3.808,-1.008 5.712,-1.904 l 1.456,8.736 q -1.904,1.008 -6.72,2.128 -4.704,1.12 -10.752,1.12 -7.616,0 -13.216,-2.24 -5.488,-2.352 -9.072,-6.384 -3.584,-4.032 -5.376,-9.52 -1.68,-5.6 -1.68,-12.208 z m 39.984,-5.712 q 0.112,-7.056 -3.584,-11.536 -3.584,-4.592 -9.968,-4.592 -3.584,0 -6.384,1.456 -2.688,1.344 -4.592,3.584 -1.904,2.24 -3.024,5.152 -1.008,2.912 -1.344,5.936 z"
       style="font-style:normal;font-variant:normal;font-weight:normal;font-stretch:normal;font-size:112px;font-family:Ubuntu;-inkscape-font-specification:'Ubuntu, Normal';font-variant-ligatures:normal;font-variant-caps:normal;font-variant-numeric:normal;font-feature-settings:normal;text-align:start;writing-mode:lr-tb;text-anchor:start"
       id="path7922" />
    <path
       d="m 683.55716,712.53117 q -7.056,0 -12.432,-2.24 -5.264,-2.24 -8.96,-6.272 -3.584,-4.032 -5.376,-9.52 -1.792,-5.6 -1.792,-12.32 0,-6.72 1.904,-12.32 2.016,-5.6 5.6,-9.632 3.584,-4.144 8.736,-6.384 5.264,-2.352 11.648,-2.352 3.92,0 7.84,0.672 3.92,0.672 7.504,2.128 l -2.352,8.848 q -2.352,-1.12 -5.488,-1.792 -3.024,-0.672 -6.496,-0.672 -8.736,0 -13.44,5.488 -4.592,5.488 -4.592,16.016 0,4.704 1.008,8.624 1.12,3.92 3.36,6.72 2.352,2.8 5.936,4.368 3.584,1.456 8.736,1.456 4.144,0 7.504,-0.784 3.36,-0.784 5.264,-1.68 l 1.456,8.736 q -0.896,0.56 -2.576,1.12 -1.68,0.448 -3.808,0.784 -2.128,0.448 -4.592,0.672 -2.352,0.336 -4.592,0.336 z"
       style="font-style:normal;font-variant:normal;font-weight:normal;font-stretch:normal;font-size:112px;font-family:Ubuntu;-inkscape-font-specification:'Ubuntu, Normal';font-variant-ligatures:normal;font-variant-caps:normal;font-variant-numeric:normal;font-feature-settings:normal;text-align:start;writing-mode:lr-tb;text-anchor:start"
       id="path7924" />
    <path
       d="m 760.18441,682.06717 q 0,6.944 -2.016,12.544 -2.016,5.6 -5.712,9.632 -3.584,4.032 -8.624,6.272 -5.04,2.128 -10.976,2.128 -5.936,0 -10.976,-2.128 -5.04,-2.24 -8.736,-6.272 -3.584,-4.032 -5.6,-9.632 -2.016,-5.6 -2.016,-12.544 0,-6.832 2.016,-12.432 2.016,-5.712 5.6,-9.744 3.696,-4.032 8.736,-6.16 5.04,-2.24 10.976,-2.24 5.936,0 10.976,2.24 5.04,2.128 8.624,6.16 3.696,4.032 5.712,9.744 2.016,5.6 2.016,12.432 z m -10.864,0 q 0,-9.856 -4.48,-15.568 -4.368,-5.824 -11.984,-5.824 -7.616,0 -12.096,5.824 -4.368,5.712 -4.368,15.568 0,9.856 4.368,15.68 4.48,5.712 12.096,5.712 7.616,0 11.984,-5.712 4.48,-5.824 4.48,-15.68 z"
       style="font-style:normal;font-variant:normal;font-weight:normal;font-stretch:normal;font-size:112px;font-family:Ubuntu;-inkscape-font-specification:'Ubuntu, Normal';font-variant-ligatures:normal;font-variant-caps:normal;font-variant-numeric:normal;font-feature-settings:normal;text-align:start;writing-mode:lr-tb;text-anchor:start"
       id="path7926" />
    <path
       d="m 774.83891,654.62717 q 3.584,-0.896 9.52,-1.904 5.936,-1.008 13.664,-1.008 6.944,0 11.536,2.016 4.592,1.904 7.28,5.488 2.8,3.472 3.92,8.4 1.12,4.928 1.12,10.864 v 32.704 h -10.416 v -30.464 q 0,-5.376 -0.784,-9.184 -0.672,-3.808 -2.352,-6.16 -1.68,-2.352 -4.48,-3.36 -2.8,-1.12 -6.944,-1.12 -1.68,0 -3.472,0.112 -1.792,0.112 -3.472,0.336 -1.568,0.112 -2.912,0.336 -1.232,0.224 -1.792,0.336 v 49.168 h -10.416 z"
       style="font-style:normal;font-variant:normal;font-weight:normal;font-stretch:normal;font-size:112px;font-family:Ubuntu;-inkscape-font-specification:'Ubuntu, Normal';font-variant-ligatures:normal;font-variant-caps:normal;font-variant-numeric:normal;font-feature-settings:normal;text-align:start;writing-mode:lr-tb;text-anchor:start"
       id="path7928" />
    <path
       d="m 848.89541,652.94717 h 22.064 v 8.736 h -22.064 v 26.88 q 0,4.368 0.672,7.28 0.672,2.8 2.016,4.48 1.344,1.568 3.36,2.24 2.016,0.672 4.704,0.672 4.704,0 7.504,-1.008 2.912,-1.12 4.032,-1.568 l 2.016,8.624 q -1.568,0.784 -5.488,1.904 -3.92,1.232 -8.96,1.232 -5.936,0 -9.856,-1.456 -3.808,-1.568 -6.16,-4.592 -2.352,-3.024 -3.36,-7.392 -0.896,-4.48 -0.896,-10.304 v -51.968 l 10.416,-1.792 z"
       style="font-style:normal;font-variant:normal;font-weight:normal;font-stretch:normal;font-size:112px;font-family:Ubuntu;-inkscape-font-specification:'Ubuntu, Normal';font-variant-ligatures:normal;font-variant-caps:normal;font-variant-numeric:normal;font-feature-settings:normal;text-align:start;writing-mode:lr-tb;text-anchor:start"
       id="path7930" />
    <path
       d="m 879.87216,682.17917 q 0,-7.728 2.24,-13.44 2.24,-5.824 5.936,-9.632 3.696,-3.808 8.512,-5.712 4.816,-1.904 9.856,-1.904 11.76,0 18.032,7.392 6.272,7.28 6.272,22.288 0,0.672 0,1.792 0,1.008 -0.112,1.904 h -39.872 q 0.672,9.072 5.264,13.776 4.592,4.704 14.336,4.704 5.488,0 9.184,-0.896 3.808,-1.008 5.712,-1.904 l 1.456,8.736 q -1.904,1.008 -6.72,2.128 -4.704,1.12 -10.752,1.12 -7.616,0 -13.216,-2.24 -5.488,-2.352 -9.072,-6.384 -3.584,-4.032 -5.376,-9.52 -1.68,-5.6 -1.68,-12.208 z m 39.984,-5.712 q 0.112,-7.056 -3.584,-11.536 -3.584,-4.592 -9.968,-4.592 -3.584,0 -6.384,1.456 -2.688,1.344 -4.592,3.584 -1.904,2.24 -3.024,5.152 -1.008,2.912 -1.344,5.936 z"
       style="font-style:normal;font-variant:normal;font-weight:normal;font-stretch:normal;font-size:112px;font-family:Ubuntu;-inkscape-font-specification:'Ubuntu, Normal';font-variant-ligatures:normal;font-variant-caps:normal;font-variant-numeric:normal;font-feature-settings:normal;text-align:start;writing-mode:lr-tb;text-anchor:start"
       id="path7932" />
  </g>
</svg>
